# xmcd CD database file
# Copyright (C) 1993-1998 Ti Kan
#
# Track frame offsets:
#  180
#  15328
#  32564
#  58747
#  71986
#  94020
#  119336
#  136406
#  147578
#  169322
#  177501
#
# Disc length: 2727 seconds
#
# Revision: 1
# Processed by: cddbd v1.4b41PL1 Copyright (c) Steve Scherf et al.
# Submitted via: CDWizzard Release:4.35
#
DISCID=a10aa50b
DTITLE=Jerry Alfred and the Medicine Beat - Nendaa - Go back
DYEAR=1900
DGENRE=
TTITLE0=Beware
TTITLE1=Pelly Song
TTITLE2=Residential School
TTITLE3=Old Ways
TTITLE4=Homeless
TTITLE5=Nendaa - go back
TTITLE6=Another Love Song
TTITLE7=McQueston River Stick Gambling Song
TTITLE8=Haven't I Told You
TTITLE9=Dene Kazhe
TTITLE10=Solzhee
EXTD=
EXTT0=
EXTT1=
EXTT2=
EXTT3=
EXTT4=
EXTT5=
EXTT6=
EXTT7=
EXTT8=
EXTT9=
EXTT10=
PLAYORDER=
